Coordinates
version=1
nRows=11
nColumns=40
inDegrees=yes

Units are S.I. units (second, meters, Newtons, ...)
If the header above contains a line with 'inDegrees', this indicates whether rotational values are in degrees (yes) or radians (no).

endheader
time	pelvis_tilt	pelvis_list	pelvis_rotation	pelvis_tx	pelvis_ty	pelvis_tz	hip_flexion_r	hip_adduction_r	hip_rotation_r	knee_angle_r	knee_angle_r_beta	ankle_angle_r	subtalar_angle_r	mtp_angle_r	hip_flexion_l	hip_adduction_l	hip_rotation_l	knee_angle_l	knee_angle_l_beta	ankle_angle_l	subtalar_angle_l	mtp_angle_l	lumbar_extension	lumbar_bending	lumbar_rotation	arm_flex_r	arm_add_r	arm_rot_r	elbow_flex_r	pro_sup_r	wrist_flex_r	wrist_dev_r	arm_flex_l	arm_add_l	arm_rot_l	elbow_flex_l	pro_sup_l	wrist_flex_l	wrist_dev_l
      1.01000000	     -3.60684535	     12.42201841	    -89.90246797	      0.11670345	      0.95024202	     -0.11100326	     -7.83996238	      7.53930587	     -0.72386125	      3.14398221	      0.05487284	     14.51012600	      0.00000000	      0.00000000	     36.49789183	     -2.29357681	      0.05225707	     -2.12807240	     -0.03714187	     -3.12966426	      0.00000000	      0.00000000	      4.75404121	      2.52645012	     -1.70040205	      0.00000000	      0.00000000	      0.00000000	      0.00000000	      0.00000000	      0.00000000	      0.00000000	      0.00000000	      0.00000000	      0.00000000	      0.00000000	      0.00000000	      0.00000000	      0.00000000
      1.02000000	     -3.29226244	     12.61955674	    -89.90570932	      0.11805811	      0.94865454	     -0.09881048	     -8.18499455	      7.08097802	     -0.67950648	      3.53318265	      0.06166567	     14.41020681	      0.00000000	      0.00000000	     36.67743645	     -1.84053356	     -0.12686360	     -1.67608313	     -0.02925317	     -4.07429295	      0.00000000	      0.00000000	      5.06794537	      2.11021030	     -1.80160235	      0.00000000	      0.00000000	      0.00000000	      0.00000000	      0.00000000	      0.00000000	      0.00000000	      0.00000000	      0.00000000	      0.00000000	      0.00000000	      0.00000000	      0.00000000	      0.00000000
      1.03000000	     -3.11299679	     12.79387440	    -89.90718065	      0.11924825	      0.94736639	     -0.08665211	     -8.44640155	      6.76944359	     -0.60731721	      4.09593543	      0.07148756	     14.07505266	      0.00000000	      0.00000000	     36.86855581	     -1.54503535	      0.06939160	     -0.96798953	     -0.01689460	     -4.54024100	      0.00000000	      0.00000000	      5.34537206	      1.81805532	     -1.86861268	      0.00000000	      0.00000000	      0.00000000	      0.00000000	      0.00000000	      0.00000000	      0.00000000	      0.00000000	      0.00000000	      0.00000000	      0.00000000	      0.00000000	      0.00000000	      0.00000000
      1.04000000	     -2.72507886	     13.00560860	    -89.90853350	      0.12066186	      0.94631539	     -0.07415882	     -8.61994207	      6.22127248	     -0.77741650	      4.73137790	      0.08257812	     13.64259646	      0.00000000	      0.00000000	     37.00748766	     -1.03640651	     -0.24507459	     -0.27117221	     -0.00473285	     -5.87650818	      0.00000000	      0.00000000	      5.71377589	      1.30186543	     -1.97988076	      0.00000000	      0.00000000	      0.00000000	      0.00000000	      0.00000000	      0.00000000	      0.00000000	      0.00000000	      0.00000000	      0.00000000	      0.00000000	      0.00000000	      0.00000000	      0.00000000
      1.05000000	     -2.35704364	     13.16549382	    -89.90916825	      0.12207440	      0.94564383	     -0.06163262	     -8.72466727	      5.69101289	     -0.91042821	      5.56518724	      0.09713084	     13.03377005	      0.00000000	      0.00000000	     37.09434086	     -0.56252602	     -0.38033729	      0.57344467	      0.01000850	     -7.00442317	      0.00000000	      0.00000000	      6.00652371	      0.80692788	     -2.07493531	      0.00000000	      0.00000000	      0.00000000	      0.00000000	      0.00000000	      0.00000000	      0.00000000	      0.00000000	      0.00000000	      0.00000000	      0.00000000	      0.00000000	      0.00000000	      0.00000000
      1.06000000	     -1.93342891	     13.33136255	    -89.90944742	      0.12352656	      0.94528461	     -0.04899731	     -8.71685735	      5.09865020	     -1.06938058	      6.55874370	      0.11447167	     12.24231760	      0.00000000	      0.00000000	     37.15956370	     -0.04289018	     -0.55359486	      1.48367791	      0.02589506	     -8.16330088	      0.00000000	      0.00000000	      6.31496191	      0.24413972	     -2.17127706	      0.00000000	      0.00000000	      0.00000000	      0.00000000	      0.00000000	      0.00000000	      0.00000000	      0.00000000	      0.00000000	      0.00000000	      0.00000000	      0.00000000	      0.00000000	      0.00000000
      1.07000000	     -1.47669806	     13.44997460	    -89.90875627	      0.12503153	      0.94532824	     -0.03628524	     -8.61929474	      4.45985952	     -1.31107302	      7.76443924	      0.13551503	     11.26104771	      0.00000000	      0.00000000	     37.13861701	      0.49765018	     -0.76655273	      2.41729119	      0.04218969	     -9.30388738	      0.00000000	      0.00000000	      6.57216608	     -0.35109571	     -2.27819568	      0.00000000	      0.00000000	      0.00000000	      0.00000000	      0.00000000	      0.00000000	      0.00000000	      0.00000000	      0.00000000	      0.00000000	      0.00000000	      0.00000000	      0.00000000	      0.00000000
      1.08000000	     -0.97118986	     13.53324151	    -89.90699349	      0.12657732	      0.94574518	     -0.02350247	     -8.42399026	      3.75612061	     -1.64243675	      9.16671503	      0.15998936	     10.08377089	      0.00000000	      0.00000000	     37.04871817	      1.07703986	     -0.99651152	      3.37392640	      0.05888612	    -10.36555230	      0.00000000	      0.00000000	      6.79149868	     -1.00156597	     -2.41253185	      0.00000000	      0.00000000	      0.00000000	      0.00000000	      0.00000000	      0.00000000	      0.00000000	      0.00000000	      0.00000000	      0.00000000	      0.00000000	      0.00000000	      0.00000000	      0.00000000
      1.09000000	     -0.44702160	     13.57829699	    -89.90452343	      0.12817440	      0.94654122	     -0.01071869	     -8.11945145	      3.01853646	     -1.98386824	     10.78063657	      0.18815760	      8.69423778	      0.00000000	      0.00000000	     36.88481709	      1.66776146	     -1.23069662	      4.32113543	      0.07541804	    -11.22731210	      0.00000000	      0.00000000	      6.95909976	     -1.66680150	     -2.53945388	      0.00000000	      0.00000000	      0.00000000	      0.00000000	      0.00000000	      0.00000000	      0.00000000	      0.00000000	      0.00000000	      0.00000000	      0.00000000	      0.00000000	      0.00000000	      0.00000000
      1.10000000	      0.10455978	     13.57491441	    -89.90226837	      0.12975346	      0.94767709	      0.00214953	     -7.70796157	      2.23712315	     -2.41109497	     12.63730363	      0.22056256	      7.06743871	      0.00000000	      0.00000000	     36.62431607	      2.27180057	     -1.48482023	      5.24627051	      0.09156469	    -11.90445642	      0.00000000	      0.00000000	      7.08874159	     -2.36857011	     -2.68128268	      0.00000000	      0.00000000	      0.00000000	      0.00000000	      0.00000000	      0.00000000	      0.00000000	      0.00000000	      0.00000000	      0.00000000	      0.00000000	      0.00000000	      0.00000000	      0.00000000
      1.11000000	      0.67050033	     13.51898451	    -89.89883878	      0.13139187	      0.94916223	      0.01496887	     -7.19444026	      1.41547890	     -2.85309490	     14.71106359	      0.25675650	      5.26144068	      0.00000000	      0.00000000	     36.27323711	      2.89227350	     -1.73460114	      6.14160297	      0.10719119	    -12.34777730	      0.00000000	      0.00000000	      7.14801017	     -3.07702624	     -2.83130639	      0.00000000	      0.00000000	      0.00000000	      0.00000000	      0.00000000	      0.00000000	      0.00000000	      0.00000000	      0.00000000	      0.00000000	      0.00000000	      0.00000000	      0.00000000	      0.00000000
